<?xml version="1.0" encoding="UTF-8"?>
<svg id="Layer_1" data-name="Layer 1" xmlns="http://www.w3.org/2000/svg" viewBox="0 0 200 100">
  <defs>
    <style>
      .cls-1 {
        fill: #c45028;
      }

      .cls-2 {
        fill: #544741;
      }
    </style>
  </defs>
  <rect class="cls-1" x="-218.35" y="-388.3" width="1920" height="100"/>
  <g>
    <g>
      <path class="cls-2" d="M132.61,90.85c-.33.39-.51.54-.62.73-.48.89-.73,1.86-.93,2.85-.1.49-.2.99-.38,1.45-.18.47-.98.54-1.26.12-.22-.33-.36-.71-.54-1.09-.19,1.12-.13,1.62.28,2.69.07.19.19.36.23.55.08.35-.22.8-.6.94-.34.12-.62-.02-.79-.27-.2-.28-.37-.61-.44-.94-.49-2.23-.58-4.47-.04-6.71.09-.39.22-.78.41-1.13.45-.86,1.24-.89,1.74-.08.18.29.29.61.43.91.48.03.46-.38.63-.58.45-.53.82-1.16,1.34-1.6.86-.72,1.91-.41,2.3.65.19.51.29,1.08.27,1.61-.05,1.35-.19,2.7-.3,4.05-.09,1.05-.19,2.1-.3,3.14-.03.3-.08.59-.16.88-.08.32-.31.5-.64.56-.34.06-.76-.11-.87-.45-.16-.52-.31-1.06-.34-1.6-.11-1.81.1-3.61.42-5.39.06-.34.08-.68.16-1.31"/>
      <path class="cls-2" d="M140.72,91.05c-.2.33-.45.64-.57,1-.26.75-.47,1.53-.68,2.3-.13.48-.19.99-.37,1.46-.21.57-1.02.64-1.34.14-.2-.32-.33-.7-.54-1.14-.23.97-.08,1.8.22,2.61.08.24.22.45.28.69.1.38-.15.82-.53.98-.29.12-.71-.02-.91-.34-.13-.21-.26-.44-.31-.68-.54-2.38-.63-4.77-.02-7.16.11-.42.33-.84.59-1.2.33-.46.96-.45,1.29,0,.26.36.43.78.68,1.26.16-.17.32-.32.46-.49.42-.55.77-1.2,1.27-1.66.98-.91,2.24-.54,2.56.75.17.67.23,1.4.18,2.09-.17,2.25-.41,4.5-.63,6.75-.02.25-.04.53-.16.73-.11.19-.35.42-.55.43-.26.02-.67-.07-.78-.26-.22-.37-.4-.84-.4-1.26,0-1.5.05-3.01.15-4.51.05-.79.23-1.58.35-2.37-.08-.04-.16-.08-.24-.12"/>
      <path class="cls-2" d="M62.62,95.79c-.66-.06-1.11-.07-1.55-.15-.38-.07-.6-.34-.65-.74-.05-.38.06-.7.41-.9.96-.54,2-.65,3.07-.46.56.1.88.54.89,1.07.04,1.6-.29,3.11-1.42,4.32-.92.99-2.27,1.16-3.45.51-1.17-.65-1.9-1.68-2.11-2.97-.4-2.37.19-4.48,1.87-6.25.57-.6,1.27-.98,2.11-1.06,1.5-.16,2.91,1.16,2.79,2.67-.03.37-.25.75-.47,1.08-.26.39-.77.32-.97-.1-.15-.31-.24-.66-.4-.97-.18-.35-.53-.44-.9-.26-.95.46-1.33,1.34-1.61,2.26-.16.52-.18,1.09-.2,1.64-.01.29.04.61.15.88.21.54.59.97,1.19,1.02.52.04.78-.39.99-.8.11-.21.15-.45.25-.78"/>
      <path class="cls-2" d="M16.46,93.96c.92.74,1.29,1.72,1.17,2.91-.2,1.92-1.68,3.09-3.56,2.68-2.06-.44-2-.28-2.3-2.31-.29-1.99-.32-3.99-.29-5.99,0-.25.03-.5.08-.75.09-.46.39-.73.86-.59.45.14.75.06,1.11-.18.33-.22.7-.37,1.06-.54,1.26-.59,3.28.75,2.85,2.57-.17.71-.59,1.36-.98,2.2M13.77,93.22c.43-.42.79-.75,1.13-1.11.13-.14.23-.33.29-.51.04-.12.03-.32-.04-.41-.08-.09-.29-.15-.39-.11-.31.14-.62.31-.9.52-.53.39-.6.88-.09,1.62M13.86,95.54c0,.44-.02.82.01,1.19,0,.1.17.24.29.28.41.13.89-.17,1.03-.6.12-.38-.08-.74-.55-.86-.22-.05-.46,0-.79,0"/>
      <path class="cls-2" d="M146.57,96.78c.57-.22.78-.63.96-1.03.35-.77.69-1.56,1-2.35.34-.84.63-1.69.97-2.53.11-.28.26-.55.44-.78.29-.37.95-.27,1.14.16.11.27.19.58.19.87.03,2.46.05,4.93.06,7.39,0,.2.01.43-.08.59-.12.2-.32.43-.51.46-.19.03-.5-.1-.63-.27-.17-.23-.22-.55-.31-.83-.1-.32-.18-.64-.32-1.12-.3.36-.47.59-.67.8-.27.3-.53.61-.84.86-.99.79-2.1.68-2.94-.28-.47-.54-.77-1.18-.92-1.87-.45-1.96-.26-3.9.18-5.83.12-.51.29-.99.91-1.05.45-.05.84.46.87,1.22.06,1.26.05,2.51.09,3.77.01.45.06.9.12,1.34.02.14.15.26.28.48"/>
      <path class="cls-2" d="M174.07,94.37c.47-.64.73-.94.92-1.27.39-.7.73-1.43,1.11-2.14.24-.44.47-.88.76-1.29.29-.41.77-.54,1.19-.38.42.16.65.49.68.91.04.4.03.8-.02,1.2-.17,1.44-.35,2.89-.55,4.33-.13.95-.44,1.86-1,2.65-.85,1.19-2.04,1.55-3.44,1.37-.23-.03-.47-.18-.65-.33-.54-.47-.44-1.32.2-1.64.4-.2.87-.28,1.26-.5.34-.19.63-.48.92-.75.18-.17.21-.45.27-1.25-.36.29-.64.54-.94.76-1.12.81-2.28.46-2.78-.84-.09-.23-.15-.48-.17-.73-.13-1.3-.24-2.6-.35-3.9,0-.1,0-.2,0-.3.03-.52.24-.84.6-.93.4-.1.76.15.93.77.23.82.4,1.66.6,2.48.12.48.24.95.45,1.78"/>
      <path class="cls-2" d="M97.31,97.3c-.55.64-.88,1.09-1.27,1.47-1.19,1.13-2.53,1-3.43-.38-.32-.49-.56-1.07-.7-1.65-.44-1.85-.24-3.69.14-5.53.02-.1.05-.19.08-.29.22-.68.6-1.06.98-.95.58.17.74.66.77,1.17.05,1.1.05,2.21.08,3.32.01.5,0,1.01.07,1.5.04.27.2.53.37.92.3-.29.56-.46.69-.7.37-.71.71-1.44,1.02-2.18.4-.97.75-1.97,1.13-2.95.13-.32.28-.65.48-.93.32-.43,1.05-.3,1.23.21.09.28.13.59.14.88.03,2.36.05,4.72.06,7.09,0,.3-.03.61-.12.89-.05.16-.27.36-.42.36-.22.01-.52-.07-.65-.23-.18-.22-.25-.53-.33-.82-.1-.32-.16-.65-.29-1.21"/>
      <path class="cls-2" d="M23.99,97.07c-.03.48-.04.8-.06,1.13-.01.25,0,.51-.05.75-.07.31-.28.53-.61.57-.32.04-.61-.05-.77-.34-.14-.26-.27-.54-.32-.83-.43-2.39-.37-4.79-.25-7.2.02-.39.14-.79.28-1.16.17-.46.72-.56,1.11-.21.18.16.31.39.45.58.59-.38,1.15-.81,1.77-1.11,1.01-.49,1.89-.12,2.33.9.27.62.3,1.26.15,1.91-.31,1.31-.9,2.44-2.02,3.24-.2.14-.39.31-.61.48.24.68.76,1.06,1.3,1.42.25.17.53.29.77.46.38.27.48.71.27,1.06-.22.37-.67.6-1.02.42-.48-.25-.93-.57-1.37-.9-.42-.32-.69-.83-1.34-1.15M25.71,91.39c-.79.44-1.15.99-1.34,1.67-.04.14.08.36.19.48.05.06.3.02.39-.05.6-.49.95-1.09.77-2.1"/>
      <path class="cls-2" d="M42.05,95.63c-.49-.19-.96-.15-1.51.08-.1.78-.19,1.57-.31,2.36-.05.34-.13.69-.26,1.01-.16.4-.59.62-.96.58-.38-.04-.73-.37-.81-.78-.05-.24-.05-.5-.06-.75-.06-2.46-.12-4.91-.16-7.37,0-.4.04-.8.13-1.18.07-.31.32-.55.65-.52.22.02.52.16.61.33.23.44.42.91.54,1.39.22.92.38,1.86.56,2.76q.84.2,1.83,0c.23-.83.45-1.7.72-2.56.15-.47.35-.93.57-1.38.15-.31.47-.41.77-.31.21.07.44.28.51.47.11.32.14.69.12,1.03-.16,2.5-.34,5-.51,7.5-.01.15-.01.3-.03.45-.08.52-.41.88-.83.93-.39.04-.8-.26-.97-.79-.14-.48-.21-.98-.28-1.47-.09-.59,0-1.2-.3-1.78"/>
      <path class="cls-2" d="M156.39,94.28c.14-.53.25-.91.35-1.29.22-.88.42-1.76.66-2.63.08-.29.21-.57.35-.83.18-.32.58-.46.91-.35.31.1.52.32.54.65.02.3.01.6-.02.9-.09.7-.25,1.39-.31,2.09-.14,1.5-.23,3-.35,4.5-.04.5-.06,1.01-.22,1.48-.3.88-1.29,1.1-1.92.4-.43-.47-.72-1.08-1.09-1.62-.24-.35-.25-.86-.79-1.1-.2.4-.09.8-.12,1.17-.03.4-.02.8-.07,1.2-.04.32-.22.56-.57.61-.36.05-.57-.16-.67-.47-.08-.24-.16-.48-.17-.73-.1-2.11-.18-4.22-.27-6.33,0-.2.01-.4.04-.6.06-.48.26-.86.76-1.02.39-.12.81.06,1.11.57.33.56.6,1.16.91,1.74.27.51.45,1.08.95,1.65"/>
      <path class="cls-2" d="M102.6,96.86c0,.78.02,1.17,0,1.57-.04.73-.3,1.08-.78,1.1-.49.01-.76-.25-.95-.98-.1-.39-.18-.79-.21-1.19-.18-2.11-.22-4.22-.05-6.33.02-.3.06-.6.15-.88.21-.64.77-.76,1.28-.29.14.13.24.3.4.5.48-.34.89-.7,1.36-.96,1.47-.84,2.74-.16,2.87,1.51.13,1.61-.47,2.95-1.63,4.04-.32.3-.69.55-1.07.86.32.59.77.98,1.27,1.32.21.14.45.23.65.37.54.35.69.84.4,1.27-.29.45-.74.54-1.32.2-.39-.23-.73-.52-1.07-.82-.37-.32-.7-.68-1.31-1.28M103.11,93.65c.91-.25,1.17-.93,1.34-1.65.06-.26-.01-.49-.39-.47-.53.37-.88.88-1.04,1.52-.04.16.05.36.09.6"/>
      <path class="cls-2" d="M76.67,94.32c.16-.5.29-.82.37-1.15.23-.92.43-1.85.68-2.77.09-.33.24-.67.43-.95.17-.26.48-.37.8-.28.31.09.54.29.57.62.03.3.02.6-.01.9-.12.94-.29,1.89-.38,2.83-.12,1.25-.18,2.5-.28,3.75-.03.45-.03.91-.14,1.34-.29,1.06-1.35,1.33-2.08.52-.36-.4-.63-.9-.91-1.37-.25-.42-.47-.85-.78-1.43-.33.51-.2.9-.24,1.27-.04.5-.04,1.01-.16,1.49-.04.17-.36.33-.57.37-.14.03-.4-.14-.47-.28-.14-.31-.26-.66-.28-1-.1-2.06-.18-4.11-.25-6.17-.01-.34.03-.71.13-1.04.21-.71,1.06-.91,1.54-.34.25.3.43.67.62,1.03.45.83.8,1.71,1.4,2.68"/>
      <path class="cls-2" d="M54.16,94.08c.09-.38.19-.77.28-1.15.21-.83.4-1.66.63-2.48.08-.29.19-.57.33-.84.17-.34.53-.51.87-.45.34.06.63.35.65.73.02.3,0,.6-.05.9-.1.75-.26,1.49-.33,2.23-.13,1.45-.21,2.9-.33,4.35-.04.5-.07,1.01-.23,1.47-.29.8-1.22,1.02-1.83.43-.35-.34-.63-.78-.89-1.2-.31-.51-.56-1.05-.82-1.53-.38,0-.36.22-.36.41,0,.5.01,1-.01,1.51-.01.24-.06.51-.18.72-.08.15-.31.28-.48.29-.17,0-.43-.1-.5-.23-.15-.31-.28-.66-.3-1-.11-2.11-.19-4.21-.25-6.32-.01-.34.05-.71.16-1.03.22-.63,1.02-.79,1.46-.29.26.3.45.66.64,1.01.44.84.86,1.69,1.28,2.53.09-.02.18-.03.27-.05"/>
      <path class="cls-2" d="M90.75,93.39c-.18,1.02-.33,2.11-.57,3.18-.16.73-.53,1.4-1.03,1.98-1.5,1.73-3.7,1.35-4.53-.77-.42-1.07-.35-2.17-.21-3.26.18-1.36.77-2.6,1.4-3.79.48-.91,1.22-1.64,2.4-1.47,1.15.17,1.91.88,2.23,1.97.19.66.21,1.38.32,2.16M88.44,91.62c-.35.15-.53.17-.61.26-1.24,1.45-1.49,3.11-1.02,4.92.01.05.04.12.07.13.18.04.41.14.53.07.2-.12.39-.33.49-.54.71-1.49.8-3.05.54-4.84"/>
      <path class="cls-2" d="M126.28,93.17c-.21,1.17-.36,2.37-.67,3.52-.18.66-.56,1.29-.98,1.84-.64.86-1.53,1.26-2.64,1.05-1.07-.21-1.61-.97-1.93-1.91-.16-.47-.27-.99-.25-1.47.06-.94.15-1.9.38-2.81.22-.86.65-1.68.99-2.51.06-.14.14-.27.23-.39.56-.75,1.21-1.38,2.25-1.23,1.09.16,1.84.81,2.2,1.82.23.65.28,1.37.41,2.1M122.43,97.08c.68.03.88-.42,1.04-.82.52-1.28.67-2.62.55-3.99-.02-.23-.09-.5-.53-.57-.78.6-1.14,1.54-1.36,2.51-.21.97-.24,1.98.29,2.87"/>
      <path class="cls-2" d="M115.11,97.04c.68-.02.98-.43,1.27-.84.21-.28.38-.59.57-.88.23-.35.57-.39.93-.29.32.08.54.33.55.64,0,.44,0,.92-.15,1.32-.37.96-1.02,1.72-1.93,2.23-.93.52-1.86.48-2.67-.19-.49-.41-.92-.94-1.21-1.51-1.06-2.05-.56-5.21,1.03-6.9.57-.6,1.23-1.02,2.09-1.06,1.11-.06,1.96.45,2.35,1.49.29.77.33,1.57-.08,2.32-.15.28-.43.48-.74.35-.2-.08-.37-.32-.46-.53-.11-.27-.09-.6-.19-.87-.19-.56-.78-.66-1.19-.22-.14.14-.26.31-.35.48-.63,1.16-.69,2.4-.34,3.64.09.31.36.57.53.81"/>
      <path class="cls-2" d="M165.21,91.64c-.41-.12-.75-.19-1.06-.33-.4-.19-.81-.4-1.14-.68-.28-.24-.31-.62-.18-.98.13-.38.44-.53.8-.59.15-.02.3,0,.45.02,1.7.23,3.4.24,5.11.01.55-.07.97.18,1.1.58.17.51,0,1.04-.53,1.25-.64.26-1.33.41-2.1.63-.03.28-.09.61-.09.95,0,1.91.03,3.82.03,5.73,0,.39-.07.8-.19,1.17-.11.35-.43.59-.81.58-.36,0-.69-.2-.82-.56-.13-.37-.23-.77-.28-1.16-.26-1.95-.37-3.9-.26-5.86.01-.2-.02-.4-.04-.76"/>
      <path class="cls-2" d="M34.1,91.49c-.31.54-.14,1.05-.14,1.54.01,1.6.05,3.21.06,4.82,0,.4-.03.8-.1,1.2-.08.51-.45.89-.83.96-.41.06-.87-.31-1.03-.91-.12-.43-.2-.88-.23-1.33-.12-1.9-.39-3.8-.15-5.71.01-.09-.05-.19-.1-.41-.31-.09-.7-.17-1.05-.33-.4-.19-.8-.41-1.13-.7-.27-.23-.35-.6-.18-.97.16-.35.45-.54.82-.58.19-.02.4.01.6.04,1.6.2,3.2.21,4.8.01.15-.02.3-.04.45-.03.41.02.77.32.87.71.1.38-.01.74-.31.93-.37.24-.79.42-1.21.55-.37.12-.77.15-1.12.21"/>
      <path class="cls-2" d="M48.49,97.91c.18.44.82.5.67,1.01-.16.53-.66.53-1.11.58-.4.04-.8.1-1.2.11-.83.02-1.11-.42-.67-1.12.16-.26.31-.48.31-.81-.01-1.2-.05-2.41,0-3.61.06-1.15.21-2.29.33-3.53-.16-.11-.35-.25-.55-.4-.22-.17-.34-.41-.22-.65.08-.16.27-.35.43-.37.7-.06,1.4-.08,2.1-.07.38,0,.61.43.43.77-.16.31-.37.56-.35.96.15,2.41.05,4.81-.17,7.12"/>
      <path class="cls-2" d="M71.82,96.53c0,.6.02,1.2,0,1.8-.01.29-.08.6-.19.87-.17.44-.85.52-1.11.13-.16-.24-.29-.53-.34-.82-.2-1.3-.17-2.6.01-3.89.03-.24.15-.48.27-.69.29-.48.95-.44,1.2.08.11.22.17.47.18.71.03.6,0,1.2,0,1.8h-.04Z"/>
      <path class="cls-2" d="M20.59,96.62c0,.75.02,1.5,0,2.24-.02.4-.3.68-.63.73-.33.05-.67-.17-.8-.53-.1-.28-.2-.57-.23-.87-.13-1.34-.19-2.69.22-4,.12-.38.45-.63.75-.62.35.01.7.37.72.81.03.75,0,1.49,0,2.24h-.03Z"/>
      <path class="cls-2" d="M161.58,96.75c0,.7.02,1.41,0,2.11-.02.44-.29.7-.63.72-.35.02-.7-.19-.8-.55-.47-1.64-.42-3.28.02-4.91.09-.36.51-.6.81-.52.38.09.61.36.62.75.02.8,0,1.6,0,2.41h-.03Z"/>
      <path class="cls-2" d="M19.14,91.65c0-.46.26-.82.66-.87.4-.06.77.27.79.71.02.48-.35.97-.74.99-.34.01-.7-.41-.71-.83"/>
      <path class="cls-2" d="M161.58,91.48c.03.51-.3.98-.71.99-.35,0-.72-.39-.74-.81-.02-.43.26-.81.65-.88.41-.07.77.24.79.7"/>
      <path class="cls-2" d="M71.03,90.78c.38-.02.74.34.74.75,0,.48-.37.93-.78.92-.29,0-.6-.35-.64-.71-.06-.53.23-.94.68-.97"/>
    </g>
    <g>
      <path class="cls-2" d="M12.39,67.95c1.1-.83,2.21-1.42,3.35-1.94.37-.16.75-.31,1.09-.51.7-.43.96-1.05.79-1.79-.16-.72-.66-1.14-1.34-1.26-.89-.17-1.79-.23-2.69-.36-.74-.11-1.48-.24-2.25-.36-.48-1.01-.33-2.09-.62-3.14.32-.16.56-.32.83-.42,1.03-.39,2.07-.76,3.1-1.16.37-.14.75-.3,1.09-.5.57-.34.82-.87.75-1.53-.07-.65-.38-1.14-1.01-1.38-.33-.12-.68-.19-1.01-.28-1.54-.43-3.09-.86-4.55-1.72-.22-1.11-.29-2.24-.41-3.41,1.49-.61,2.97-.88,4.45-1.12,1.69-.27,3.39-.42,5.08-.62.1-.01.2,0,.3-.02.93-.13,1.54-.71,1.61-1.52.07-.85-.37-1.53-1.28-1.8-.82-.24-1.65-.44-2.49-.6-2.27-.44-4.54-.87-6.85-1-.39-.02-.78-.13-1.18-.2-.34-.77-.22-1.52-.23-2.3.83-.49,1.75-.51,2.61-.7,1.42-.3,2.87-.41,4.21-1.08.52-.26,1.16-.3,1.74-.44.59-.13,1.19-.21,1.76-.4,1.07-.35,1.49-1.42.98-2.44-.4-.8-.98-1.32-1.94-1.47-2.72-.44-5.44-.97-8.15-1.47-.48-.09-.96-.24-1.51-.39-.01-.77-.03-1.47-.04-2.16,0-.39.03-.79.04-1.27,1.04-.19,2.02-.32,3.01-.38.7-.04,1.4-.11,2.09-.25.81-.16,1.27-.69,1.37-1.41.09-.65-.3-1.34-1.01-1.7-.45-.22-.93-.38-1.4-.55-1.32-.48-2.64-.95-4-1.44-.19-1.49-.09-2.92-.01-4.45.38-.05.71-.14,1.04-.14,1.46-.03,2.92-.01,4.37-.05.39,0,.81-.05,1.17-.2,1.21-.5,1.39-2.03.35-2.81-.32-.24-.71-.37-1.06-.56-1.42-.75-2.84-1.5-4.25-2.27-.3-.16-.57-.39-.88-.61,0-.88.45-1.56.9-2.21,1.8-2.66,5.04-3.43,7.84-1.86.61.34,1.14.81,1.7,1.25.39.31.75.66,1.15,1.01,1.11-.83,2.18-1.64,3.27-2.43,2.73-1.99,5.63-3.69,8.84-4.8C35.66.46,38.27-.06,40.95,0c5.82.13,10.76,2.25,14.6,6.71,3.49,4.05,4.64,8.7,3.55,13.92-.77,3.72-2.39,7.04-4.8,9.95-1.38,1.66-2.9,3.2-4.37,4.78-.2.22-.49.35-.6.42,0,.75.43.9.75,1.11.75.5,1.55.94,2.27,1.48,4.72,3.55,7.57,8.23,8.45,14.09.57,3.82.13,7.52-1.19,11.12-1.86,5.09-4.9,9.32-9.36,12.46-2.67,1.88-5.65,3.04-8.88,3.54-5.27.81-10.41.26-15.47-1.34-.34-.11-.67-.2-1-.33-1.37-.54-2.77-.76-4.26-.72-3.31.09-5.63-1.55-7.04-4.5-.7-1.46-.97-3.05-1.23-4.75M26.38,32.78c.4-.29.6-.43.79-.58,1.05-.86,2.11-1.71,3.15-2.58,2.12-1.77,4.25-3.54,6.34-5.34,1.46-1.26,2.64-2.76,3.62-4.41.43-.72.76-1.53,1-2.34.36-1.23-.2-2.29-1.37-2.83-.86-.4-1.76-.37-2.66-.17-1.43.31-2.77.88-4.05,1.58-2.53,1.37-4.86,3.03-7.03,4.91-.23.2-.45.41-.66.61-.58.56-.84,1.24-.75,2.04.04.3.06.6.11.9.31,1.83.61,3.67.94,5.49.15.84.34,1.66.57,2.72M28.53,59.98c.09.04.17.12.26.13,2.11.09,4.22.21,6.33-.03,1.47-.16,2.69-.78,3.69-1.84.84-.89,1.46-1.92,1.86-3.08.74-2.12,0-4.2-1.91-5.36-.43-.26-.89-.47-1.36-.65-2.27-.91-4.64-1.29-7.08-1.16-.68.04-1.4-.05-2.04.25-.33,2.58-.16,10.19.25,11.74"/>
      <path class="cls-2" d="M91.53,69.01c3.59-4.45,7.99-7.64,13.29-9.69.29.32.52.58.75.82.35.36.68.74,1.08,1.05,1.21.94,2.37.9,3.55-.1.78-.66,1.34-1.49,1.85-2.36,1.36-2.31,2.3-4.79,3.04-7.37.9-3.16,1.33-6.39,1.57-9.65.13-1.73-.13-3.39-.86-4.99-.37-.81-.54-1.72-.7-2.61-.54-3.11-1.65-6-3.29-8.69-.39-.64-.84-1.25-1.34-1.82-.36-.41-.8-.77-1.26-1.06-.95-.59-1.94-.47-2.77.27-.77.69-1.29,1.56-1.62,2.51-.56,1.61-1.09,3.24-1.51,4.89-.8,3.12-1.2,6.31-1.57,9.51-.32,2.76-.34,5.52-.23,8.28.04,1,.17,2,.27,3.09-.38.13-.73.3-1.1.39-5.1,1.14-9.46,3.58-13.06,7.37-.24.25-.51.48-.77.72-.02.02-.09,0-.25-.02-.12-.32-.27-.68-.38-1.05-.65-2.38-1.09-4.8-1.34-7.25-.47-4.63-.31-9.24.28-13.84.4-3.19.88-6.37,1.34-9.55.07-.5.18-.99.33-1.47.59-1.82,1.17-3.64,1.82-5.43,1.17-3.2,2.88-6.08,5.35-8.47,2.83-2.72,6.22-4.38,10.01-5.28.19-.05.39-.03.58-.05.41.33.43.8.57,1.22,1.42,4.12,4.1,7.08,8.08,8.87,1.69.76,3.45,1.06,5.29.9,2.45-.21,4.91-.42,7.36-.62.4-.03.8,0,1.26,0,1.48,2.52,2.71,5.17,2.93,8.13.16,2.18.65,4.27,1.36,6.32.87,2.53,1.35,5.15,1.72,7.79.41,2.95.47,5.92.31,8.88-.27,4.84-1.02,9.6-2.68,14.17-1.45,3.99-3.67,7.49-6.76,10.4-3.9,3.68-8.51,5.6-13.92,5.53-7.36-.09-13.26-3.17-17.97-8.72-.16-.19-.31-.4-.45-.6-.06-.08-.08-.18-.16-.4M88.98,53.73c0-.08-.02-.28-.06-.48-.25-1.19-1.57-1.72-2.56-1.03-1.09.75-.91,2.83.2,3.3.5.21.94.26,1.43.02.72-.35.97-.95.99-1.82M99.47,46.09c-.88-.02-1.64.68-1.67,1.56-.04.96.7,1.78,1.61,1.79.86,0,1.67-.72,1.7-1.56.02-.78-.54-1.75-1.63-1.78M94.99,50.74c.89-.03,1.66-.81,1.63-1.65-.03-.87-.8-1.64-1.65-1.65-.97-.01-1.72.77-1.66,1.74.05.92.77,1.59,1.69,1.56M92.53,50.92c0-.92-.69-1.67-1.57-1.7-.85-.04-1.69.72-1.74,1.56-.05.93.74,1.75,1.68,1.74.96,0,1.63-.67,1.63-1.6"/>
      <path class="cls-2" d="M138.22,48.81c2.5-.58,16.05.02,19.64.87.11.44.25.92.36,1.4.37,1.62.78,3.23,1.5,4.73.45.95.96,1.89,1.59,2.72,1.59,2.07,3.74,2.61,6.18,1.65,1.37-.54,2.56-1.38,3.66-2.35,1.63-1.43,3.09-3.03,4.35-4.8,1.05-1.47,2.06-2.97,2.99-4.52.46-.77,1.04-1.33,1.8-1.75,2.61-1.44,5.22-1.33,7.74.16,2.26,1.34,3.31,3.46,3.37,6.04.06,2.25-.59,4.37-1.57,6.38-2.87,5.9-7.13,10.54-12.65,14.05-2.26,1.44-4.61,2.66-7.19,3.42-5.3,1.56-10.45,1.11-15.37-1.4-5.63-2.88-9.83-7.25-12.8-12.81-1.94-3.63-3.08-7.52-3.53-11.61-.07-.6-.13-1.2-.19-1.8,0-.09.05-.19.1-.39"/>
      <path class="cls-2" d="M179.94,38.17c-2.32-.54-3.67-2.14-3.85-4.46-.09-1.1-.16-2.2-.32-3.29-.2-1.41-.7-2.72-1.46-3.93-1.13-1.8-2.69-2.59-4.85-2.22-2.39.42-4.31,1.58-5.81,3.46-1.77,2.22-3.13,4.67-4.15,7.31-.16.42-.32.84-.51,1.32-1.42-.06-2.79-.33-4.18-.49-1.34-.15-2.69-.27-4.06-.4-.18-.68-.04-1.25.11-1.83.98-3.83,3.27-6.73,6.46-8.97,2.46-1.72,5.2-2.82,8.08-3.58,2.39-.62,4.81-1.04,7.29-.93,1.32.06,2.59.31,3.81.79.6.24,1.18.56,1.73.9,1.66,1.03,2.53,2.55,2.56,4.5.02,1.41.06,2.82-.02,4.22-.14,2.2-.37,4.4-.58,6.6-.03.33-.18.66-.27.98"/>
      <path class="cls-2" d="M64.8,66.1c3.7-3.36,10.65-5.67,14.85-5.44.06.25.18.53.17.81-.03,3.27-.05,6.53-.13,9.8-.02.75-.14,1.51-.33,2.23-.98,3.65-4.64,5.59-8.28,4.42-.97-.31-1.84-.8-2.62-1.45-.75-.62-1.31-1.36-1.66-2.28-.84-2.16-1.39-4.4-1.79-6.68-.08-.44-.14-.89-.21-1.41"/>
      <path class="cls-2" d="M73.02,11.69c3.89.04,6.9,3.15,6.72,6.69-.14,2.82-2.36,5.71-5.07,6.5-2.98.87-6.6-.7-7.8-4.22-1.33-3.91,1.27-7.97,5.19-8.88.39-.09.8-.08.96-.09"/>
      <path class="cls-2" d="M79.77,38.62c.09.36.22.64.23.92.03,3.57.04,7.14.04,10.71,0,.14-.07.28-.12.47-1.77.26-3.56.48-5.32.79-1.83.33-3.62.87-5.33,1.6-1.65.71-3.26,1.52-4.87,2.28-.34-.14-.28-.42-.26-.65.2-2.96.41-5.92.6-8.88.04-.59.39-.85.9-1.07,3.13-1.37,6.25-2.76,9.37-4.15,1.24-.55,2.48-1.11,3.72-1.65.31-.14.64-.24,1.04-.39M78.12,49.48c.87,0,1.67-.74,1.69-1.57.02-.89-.82-1.77-1.69-1.77-.85,0-1.64.77-1.66,1.61-.03.96.72,1.73,1.66,1.72M74.14,50.39c.91.02,1.67-.64,1.72-1.5.05-.92-.7-1.78-1.6-1.82-.83-.04-1.66.71-1.72,1.54-.07.94.67,1.75,1.6,1.77M70.23,51.56c.88.02,1.67-.67,1.71-1.52.05-.93-.7-1.78-1.6-1.82-.83-.03-1.66.72-1.72,1.55-.07.91.7,1.77,1.61,1.79M66.6,52.53c.91.02,1.66-.63,1.72-1.5.06-.93-.68-1.77-1.59-1.81-.84-.04-1.66.69-1.73,1.53-.07.92.68,1.75,1.6,1.78"/>
      <path class="cls-2" d="M78.49,35.37c-2.63,1.39-11.67,5.32-12.76,5.55-.03-.14-.11-.29-.08-.43.29-1.48.71-2.92,1.47-4.23,1.33-2.31,3.76-3.99,7.26-3.29,1.41.28,2.69.79,3.7,1.85.13.14.24.32.41.56"/>
      <path class="cls-2" d="M89.54,66c-.65-.72-.97-1.56-1.32-2.33,1.87-3.72,8.61-8.64,14.35-9.02.09.2.21.41.29.64.1.28.18.57.29.92-.26.15-.5.33-.77.44-4.67,2.03-8.74,4.9-12.16,8.68-.2.22-.42.41-.68.66"/>
      <path class="cls-2" d="M176.39,10.09c-.92,1.17-1.8,2.19-2.57,3.29-.75,1.06-1.38,2.2-2.12,3.4h-2.55c-.93-2.4-1.66-4.9-2.6-7.39.17-.09.32-.24.49-.25,2.58-.25,6.51-.19,9.35.97"/>
      <path class="cls-2" d="M79.94,54.46c.07.87.03,1.75-.12,2.7-5.53.24-10.59,1.8-15.2,4.78q-.38-.91-.34-2.19c4.08-3.27,12.04-5.98,15.65-5.29"/>
      <path class="cls-2" d="M158.12,39.79c-.12.67-.2,1.16-.3,1.74-1.66-.03-3.22-.4-4.81-.54-1.6-.15-3.2-.27-4.81-.38-1.56-.1-3.11-.2-4.67-.24-1.6-.04-3.2-.01-4.84-.01-.15-.59-.07-1.06.13-1.58.68-.18,1.38-.13,2.07-.14,4.12-.09,8.24.03,12.34.49,1.2.13,2.4.24,3.6.39.39.05.76.16,1.28.28"/>
      <path class="cls-2" d="M163.07,18.21c-.44.16-.82.29-1.18.42-.15-.11-.3-.18-.38-.28-1.35-1.74-2.7-3.48-4.03-5.24-.21-.27-.34-.59-.5-.88,1.4-1.1,4.55-2.26,6.5-2.4-.13,1.4-.32,2.78-.38,4.16-.07,1.4-.01,2.8-.01,4.21"/>
      <path class="cls-2" d="M180.72,19.36c-1-.55-1.99-1.11-2.98-1.65.27-1.24,1.51-4.42,2.25-5.75.67.06,1.11.57,1.6.95,1.37,1.08,2.61,2.29,3.56,3.82-1.52.9-2.97,1.77-4.43,2.63"/>
      <path class="cls-2" d="M108.28,6.57c.18-.05.38-.17.55-.14.17.03.36.18.45.33.19.29.31.63.46.94,1.76,3.61,4.79,5.26,8.67,5.51,1.25.08,2.5.06,3.74-.2.49-.1.99-.1,1.53-.14.18.17.37.33.53.51.16.18.29.4.51.69-.27.11-.47.26-.68.27-1.8.15-3.6.23-5.39.42-2.39.26-4.45-.5-6.32-1.9-1.99-1.49-3.34-3.44-4.07-5.81-.04-.13,0-.29,0-.49"/>
      <path class="cls-2" d="M138.08,45.03c.03-.36.06-.73.09-1.08,2.83-.6,14.28.07,19.29,1.11.04.24.08.52.13.78-.43.39-.89.22-1.32.19-1.1-.08-2.19-.2-3.29-.31-4.39-.43-8.8-.57-13.21-.51-.54,0-1.1.15-1.69-.18"/>
      <path class="cls-2" d="M147.71,20c.67-1.42,3.67-4.38,5.12-5.06.06.08.16.15.16.23.02,2.61.64,5.15.92,7.73,0,.04-.05.08-.12.18-.59-.09-1.03-.53-1.55-.8-.49-.25-.97-.53-1.46-.78-.54-.27-1.1-.49-1.63-.76-.49-.24-1.08-.28-1.45-.74"/>
      <path class="cls-2" d="M145.33,23.16c1.22,2.02,2.25,4.12,3.55,6.13-.21.45-.41.88-.65,1.41-1.92-1.08-3.91-1.71-5.94-2.16.35-1.49,1.94-4.29,3.05-5.39"/>
      <path class="cls-2" d="M187.66,21.56c.84,2.56,1.11,5,.74,7.54-.2.03-.36.1-.48.06-1.19-.4-2.37-.81-3.61-1.25-.08-1.04-.17-2.08-.25-3.1.68-.92,1.98-2.11,3.6-3.25"/>
      <path class="cls-2" d="M120.46,9.71c-3.6.45-6.3-.72-7.33-3.1,2.69.35,4.99,1.38,7.33,3.1"/>
      <path class="cls-2" d="M145.68,35.19c-2.07.06-3.98.06-5.95.06.06-1.11.47-2.01.84-3,.21.05.41.06.56.14,1.39.78,2.77,1.58,4.15,2.38.11.06.18.19.39.42"/>
      <path class="cls-2" d="M187.14,33.31c-.43,1.82-1.65,3.33-3.32,4.16-.25-.95-.2-1.63.29-3.94.98-.07,2-.15,3.03-.22"/>
      <path class="cls-2" d="M32.07,53.48c.08.7.13,1.3.21,1.9.05.35.09.7.2,1.03.27.78,1.04,1.07,1.67.55.77-.63,1.55-1.29,2.17-2.06.94-1.16.68-2.51-.48-3.43-.59-.47-1.24-.63-1.97-.57-1.19.1-1.83.76-1.85,1.94,0,.25.04.5.05.64"/>
      <path class="cls-2" d="M29.6,26.71c-1.04.02-1.86-.68-2-1.61-.1-.68.06-1.31.45-1.86.32-.45.68-.87,1.1-1.23,1.93-1.63,3.99-3.03,6.46-3.75.4-.12.79-.3,1.1.07.36.43.65.92.38,1.51-.16.37-.35.72-.58,1.05-1.12,1.62-2.44,3.06-3.95,4.32-.7.58-1.45,1.07-2.34,1.33-.24.07-.48.13-.61.16"/>
      <path class="cls-2" d="M32.07,53.48c-.01-.14-.05-.39-.05-.64.02-1.18.66-1.84,1.85-1.94.73-.06,1.38.1,1.97.57,1.17.92,1.42,2.28.48,3.43-.62.77-1.4,1.43-2.17,2.06-.63.52-1.4.23-1.67-.55-.11-.33-.16-.68-.2-1.03-.08-.6-.13-1.2-.21-1.9"/>
    </g>
  </g>
</svg>